<mxfile host="app.diagrams.net" modified="2024-06-01T11:33:30.679Z" agent="Mozilla/5.0 (X11; Ubuntu; Linux x86_64; rv:126.0) Gecko/20100101 Firefox/126.0" version="24.4.4" etag="XagA_hPVsThgE-C4wYFZ" type="github">
  <diagram name="Seite-1" id="LPYGtLebu4NTD4x6cupt">
    <mxGraphModel>
      <root>
        <mxCell id="0" />
        <mxCell id="1" parent="0" />
      </root>
    </mxGraphModel>
  </diagram>
</mxfile>
